<mxfile host="app.diagrams.net" modified="2022-01-27T15:02:16.986Z" agent="5.0 (Windows NT 10.0; Win64; x64) AppleWebKit/537.36 (KHTML, like Gecko) Chrome/97.0.4692.99 Safari/537.36" etag="lJqP2DCjos5IMjk-R_51" version="16.4.5" type="github">
  <diagram id="C5RBs43oDa-KdzZeNtuy" name="Page-1">
    <mxGraphModel dx="1022" dy="428" grid="1" gridSize="10" guides="1" tooltips="1" connect="1" arrows="1" fold="1" page="1" pageScale="1" pageWidth="827" pageHeight="1169" math="0" shadow="0">
      <root>
        <mxCell id="WIyWlLk6GJQsqaUBKTNV-0" />
        <mxCell id="WIyWlLk6GJQsqaUBKTNV-1" parent="WIyWlLk6GJQsqaUBKTNV-0" />
        <mxCell id="Xmg_F8E3b7S0yMsgVUb--53" style="edgeStyle=orthogonalEdgeStyle;rounded=0;orthogonalLoop=1;jettySize=auto;html=1;exitX=0.5;exitY=1;exitDx=0;exitDy=0;entryX=0.5;entryY=0;entryDx=0;entryDy=0;" parent="WIyWlLk6GJQsqaUBKTNV-1" source="Xmg_F8E3b7S0yMsgVUb--0" target="Xmg_F8E3b7S0yMsgVUb--1" edge="1">
          <mxGeometry relative="1" as="geometry" />
        </mxCell>
        <mxCell id="Xmg_F8E3b7S0yMsgVUb--0" value="Mulai" style="ellipse;whiteSpace=wrap;html=1;fillColor=#FF99CC;" parent="WIyWlLk6GJQsqaUBKTNV-1" vertex="1">
          <mxGeometry x="235" y="40" width="120" height="40" as="geometry" />
        </mxCell>
        <mxCell id="Xmg_F8E3b7S0yMsgVUb--1" value="Peserta melakukan pendaftaran di Microsoft&amp;nbsp;forms" style="shape=parallelogram;perimeter=parallelogramPerimeter;whiteSpace=wrap;html=1;fixedSize=1;fillColor=#CC99FF;" parent="WIyWlLk6GJQsqaUBKTNV-1" vertex="1">
          <mxGeometry x="130" y="100" width="330" height="40" as="geometry" />
        </mxCell>
        <mxCell id="Xmg_F8E3b7S0yMsgVUb--2" value="Data diri masuk ke &lt;i&gt;sharepoint list &lt;/i&gt;untuk keperluan arsip" style="rounded=0;whiteSpace=wrap;html=1;fillColor=#88DAEB;" parent="WIyWlLk6GJQsqaUBKTNV-1" vertex="1">
          <mxGeometry x="40" y="189" width="160" height="65" as="geometry" />
        </mxCell>
        <mxCell id="Kh-9gaG5R-nCd0gry7N--14" style="edgeStyle=orthogonalEdgeStyle;rounded=0;orthogonalLoop=1;jettySize=auto;html=1;exitX=0.5;exitY=1;exitDx=0;exitDy=0;entryX=0.5;entryY=0;entryDx=0;entryDy=0;" parent="WIyWlLk6GJQsqaUBKTNV-1" source="Xmg_F8E3b7S0yMsgVUb--3" target="Xmg_F8E3b7S0yMsgVUb--5" edge="1">
          <mxGeometry relative="1" as="geometry" />
        </mxCell>
        <mxCell id="Xmg_F8E3b7S0yMsgVUb--3" value="Pengiriman email konfirmasi dengan Power Automate" style="rounded=0;whiteSpace=wrap;html=1;fillColor=#88DAEB;" parent="WIyWlLk6GJQsqaUBKTNV-1" vertex="1">
          <mxGeometry x="395" y="189" width="180" height="60" as="geometry" />
        </mxCell>
        <mxCell id="Xmg_F8E3b7S0yMsgVUb--28" style="edgeStyle=orthogonalEdgeStyle;rounded=0;orthogonalLoop=1;jettySize=auto;html=1;exitX=0.5;exitY=1;exitDx=0;exitDy=0;entryX=0.5;entryY=0;entryDx=0;entryDy=0;" parent="WIyWlLk6GJQsqaUBKTNV-1" source="Xmg_F8E3b7S0yMsgVUb--4" target="Xmg_F8E3b7S0yMsgVUb--6" edge="1">
          <mxGeometry relative="1" as="geometry" />
        </mxCell>
        <mxCell id="Xmg_F8E3b7S0yMsgVUb--4" value="Pengiriman email jadwal kegiatan dengan Power Automate" style="rounded=0;whiteSpace=wrap;html=1;fillColor=#88DAEB;" parent="WIyWlLk6GJQsqaUBKTNV-1" vertex="1">
          <mxGeometry x="210" y="189" width="175" height="65" as="geometry" />
        </mxCell>
        <mxCell id="Xmg_F8E3b7S0yMsgVUb--5" value="Peserta mendapat email konfirmasi" style="shape=parallelogram;perimeter=parallelogramPerimeter;whiteSpace=wrap;html=1;fixedSize=1;size=21.5;fillColor=#CC99FF;" parent="WIyWlLk6GJQsqaUBKTNV-1" vertex="1">
          <mxGeometry x="408.5" y="275" width="162.5" height="50" as="geometry" />
        </mxCell>
        <mxCell id="Kh-9gaG5R-nCd0gry7N--15" style="edgeStyle=orthogonalEdgeStyle;rounded=0;orthogonalLoop=1;jettySize=auto;html=1;exitX=0.5;exitY=1;exitDx=0;exitDy=0;entryX=0.5;entryY=0;entryDx=0;entryDy=0;" parent="WIyWlLk6GJQsqaUBKTNV-1" source="Xmg_F8E3b7S0yMsgVUb--6" target="Xmg_F8E3b7S0yMsgVUb--7" edge="1">
          <mxGeometry relative="1" as="geometry" />
        </mxCell>
        <mxCell id="Xmg_F8E3b7S0yMsgVUb--6" value="Peserta mendapat email jadwal kegiatan dan &lt;i&gt;link meeting&lt;/i&gt;" style="shape=parallelogram;perimeter=parallelogramPerimeter;whiteSpace=wrap;html=1;fixedSize=1;fillColor=#CC99FF;" parent="WIyWlLk6GJQsqaUBKTNV-1" vertex="1">
          <mxGeometry x="187.5" y="280" width="210" height="50" as="geometry" />
        </mxCell>
        <mxCell id="Xmg_F8E3b7S0yMsgVUb--32" style="edgeStyle=orthogonalEdgeStyle;rounded=0;orthogonalLoop=1;jettySize=auto;html=1;exitX=0.5;exitY=1;exitDx=0;exitDy=0;entryX=0.5;entryY=0;entryDx=0;entryDy=0;" parent="WIyWlLk6GJQsqaUBKTNV-1" source="Xmg_F8E3b7S0yMsgVUb--7" target="Xmg_F8E3b7S0yMsgVUb--8" edge="1">
          <mxGeometry relative="1" as="geometry" />
        </mxCell>
        <mxCell id="Xmg_F8E3b7S0yMsgVUb--7" value="Kegiatan visitasi daring dengan Microsoft Teams" style="rounded=0;whiteSpace=wrap;html=1;fillColor=#88DAEB;" parent="WIyWlLk6GJQsqaUBKTNV-1" vertex="1">
          <mxGeometry x="147.5" y="360" width="300" height="40" as="geometry" />
        </mxCell>
        <mxCell id="Xmg_F8E3b7S0yMsgVUb--34" style="edgeStyle=orthogonalEdgeStyle;rounded=0;orthogonalLoop=1;jettySize=auto;html=1;exitX=0.5;exitY=1;exitDx=0;exitDy=0;entryX=0.5;entryY=0;entryDx=0;entryDy=0;" parent="WIyWlLk6GJQsqaUBKTNV-1" source="Xmg_F8E3b7S0yMsgVUb--8" target="Xmg_F8E3b7S0yMsgVUb--10" edge="1">
          <mxGeometry relative="1" as="geometry" />
        </mxCell>
        <mxCell id="HR6x1QMzDyvR9N6RNhHc-10" style="edgeStyle=orthogonalEdgeStyle;rounded=0;orthogonalLoop=1;jettySize=auto;html=1;exitX=1;exitY=0.5;exitDx=0;exitDy=0;entryX=0;entryY=0.5;entryDx=0;entryDy=0;" parent="WIyWlLk6GJQsqaUBKTNV-1" source="Xmg_F8E3b7S0yMsgVUb--8" target="HR6x1QMzDyvR9N6RNhHc-2" edge="1">
          <mxGeometry relative="1" as="geometry" />
        </mxCell>
        <mxCell id="Xmg_F8E3b7S0yMsgVUb--8" value="Peserta hadir?" style="rhombus;whiteSpace=wrap;html=1;fillColor=#FFFF66;" parent="WIyWlLk6GJQsqaUBKTNV-1" vertex="1">
          <mxGeometry x="228.75" y="430" width="140" height="60" as="geometry" />
        </mxCell>
        <mxCell id="Xmg_F8E3b7S0yMsgVUb--37" style="edgeStyle=orthogonalEdgeStyle;rounded=0;orthogonalLoop=1;jettySize=auto;html=1;exitX=0.5;exitY=1;exitDx=0;exitDy=0;entryX=0.5;entryY=0;entryDx=0;entryDy=0;" parent="WIyWlLk6GJQsqaUBKTNV-1" source="Xmg_F8E3b7S0yMsgVUb--10" target="Xmg_F8E3b7S0yMsgVUb--11" edge="1">
          <mxGeometry relative="1" as="geometry" />
        </mxCell>
        <mxCell id="Xmg_F8E3b7S0yMsgVUb--10" value="Nama peserta masuk ke daftar hadir untuk pembuatan sertifikat" style="rounded=0;whiteSpace=wrap;html=1;fillColor=#88DAEB;" parent="WIyWlLk6GJQsqaUBKTNV-1" vertex="1">
          <mxGeometry x="63" y="520" width="470" height="40" as="geometry" />
        </mxCell>
        <mxCell id="Xmg_F8E3b7S0yMsgVUb--38" style="edgeStyle=orthogonalEdgeStyle;rounded=0;orthogonalLoop=1;jettySize=auto;html=1;exitX=0.5;exitY=1;exitDx=0;exitDy=0;entryX=0.5;entryY=0;entryDx=0;entryDy=0;" parent="WIyWlLk6GJQsqaUBKTNV-1" source="Xmg_F8E3b7S0yMsgVUb--11" target="Xmg_F8E3b7S0yMsgVUb--13" edge="1">
          <mxGeometry relative="1" as="geometry" />
        </mxCell>
        <mxCell id="Xmg_F8E3b7S0yMsgVUb--11" value="Penerbitan sertifikat dengan format (.pdf) menggunakan &lt;i&gt;mail merge &lt;/i&gt;Microsoft Word" style="rounded=0;whiteSpace=wrap;html=1;fillColor=#88DAEB;" parent="WIyWlLk6GJQsqaUBKTNV-1" vertex="1">
          <mxGeometry x="60" y="582" width="470" height="38" as="geometry" />
        </mxCell>
        <mxCell id="Xmg_F8E3b7S0yMsgVUb--40" style="edgeStyle=orthogonalEdgeStyle;rounded=0;orthogonalLoop=1;jettySize=auto;html=1;exitX=0.5;exitY=1;exitDx=0;exitDy=0;entryX=0.5;entryY=0;entryDx=0;entryDy=0;" parent="WIyWlLk6GJQsqaUBKTNV-1" source="Xmg_F8E3b7S0yMsgVUb--12" target="Xmg_F8E3b7S0yMsgVUb--15" edge="1">
          <mxGeometry relative="1" as="geometry" />
        </mxCell>
        <mxCell id="Xmg_F8E3b7S0yMsgVUb--12" value="Pengiriman sertifikat dan &lt;i&gt;link feedback&lt;/i&gt; dengan otomasi Power Automate" style="rounded=0;whiteSpace=wrap;html=1;fillColor=#88DAEB;" parent="WIyWlLk6GJQsqaUBKTNV-1" vertex="1">
          <mxGeometry x="60" y="698" width="470" height="41" as="geometry" />
        </mxCell>
        <mxCell id="Xmg_F8E3b7S0yMsgVUb--39" style="edgeStyle=orthogonalEdgeStyle;rounded=0;orthogonalLoop=1;jettySize=auto;html=1;exitX=0.5;exitY=1;exitDx=0;exitDy=0;entryX=0.5;entryY=0;entryDx=0;entryDy=0;" parent="WIyWlLk6GJQsqaUBKTNV-1" source="Xmg_F8E3b7S0yMsgVUb--13" target="Xmg_F8E3b7S0yMsgVUb--12" edge="1">
          <mxGeometry relative="1" as="geometry" />
        </mxCell>
        <mxCell id="Xmg_F8E3b7S0yMsgVUb--13" value="Membuat &lt;i&gt;link forms&lt;/i&gt; untuk &lt;i&gt;feedback &lt;/i&gt;kegiatan" style="rounded=0;whiteSpace=wrap;html=1;fillColor=#88DAEB;" parent="WIyWlLk6GJQsqaUBKTNV-1" vertex="1">
          <mxGeometry x="60" y="641" width="470" height="40" as="geometry" />
        </mxCell>
        <mxCell id="Xmg_F8E3b7S0yMsgVUb--43" style="edgeStyle=orthogonalEdgeStyle;rounded=0;orthogonalLoop=1;jettySize=auto;html=1;exitX=0.5;exitY=1;exitDx=0;exitDy=0;entryX=0.5;entryY=0;entryDx=0;entryDy=0;" parent="WIyWlLk6GJQsqaUBKTNV-1" source="Xmg_F8E3b7S0yMsgVUb--14" target="Xmg_F8E3b7S0yMsgVUb--17" edge="1">
          <mxGeometry relative="1" as="geometry" />
        </mxCell>
        <mxCell id="Xmg_F8E3b7S0yMsgVUb--14" value="Data &lt;i&gt;feedback &lt;/i&gt;dikumpulkan dalam bentuk &lt;i&gt;spreadsheet &lt;/i&gt;Microsoft Excel" style="rounded=0;whiteSpace=wrap;html=1;fillColor=#88DAEB;" parent="WIyWlLk6GJQsqaUBKTNV-1" vertex="1">
          <mxGeometry x="70" y="859" width="460" height="31" as="geometry" />
        </mxCell>
        <mxCell id="Xmg_F8E3b7S0yMsgVUb--41" style="edgeStyle=orthogonalEdgeStyle;rounded=0;orthogonalLoop=1;jettySize=auto;html=1;exitX=0.5;exitY=1;exitDx=0;exitDy=0;entryX=0.5;entryY=0;entryDx=0;entryDy=0;" parent="WIyWlLk6GJQsqaUBKTNV-1" source="Xmg_F8E3b7S0yMsgVUb--15" target="Xmg_F8E3b7S0yMsgVUb--16" edge="1">
          <mxGeometry relative="1" as="geometry" />
        </mxCell>
        <mxCell id="Xmg_F8E3b7S0yMsgVUb--15" value="Peserta mendapat email sertifikat" style="shape=parallelogram;perimeter=parallelogramPerimeter;whiteSpace=wrap;html=1;fixedSize=1;fillColor=#CC99FF;" parent="WIyWlLk6GJQsqaUBKTNV-1" vertex="1">
          <mxGeometry x="161.5" y="759" width="270" height="30" as="geometry" />
        </mxCell>
        <mxCell id="Kh-9gaG5R-nCd0gry7N--19" style="edgeStyle=orthogonalEdgeStyle;rounded=0;orthogonalLoop=1;jettySize=auto;html=1;exitX=0.5;exitY=1;exitDx=0;exitDy=0;entryX=0.5;entryY=0;entryDx=0;entryDy=0;" parent="WIyWlLk6GJQsqaUBKTNV-1" source="Xmg_F8E3b7S0yMsgVUb--16" target="Xmg_F8E3b7S0yMsgVUb--14" edge="1">
          <mxGeometry relative="1" as="geometry" />
        </mxCell>
        <mxCell id="Xmg_F8E3b7S0yMsgVUb--16" value="Peserta mengisi &lt;i&gt;forms feedback&lt;/i&gt;" style="shape=parallelogram;perimeter=parallelogramPerimeter;whiteSpace=wrap;html=1;fixedSize=1;fillColor=#CC99FF;" parent="WIyWlLk6GJQsqaUBKTNV-1" vertex="1">
          <mxGeometry x="164" y="809" width="265" height="30" as="geometry" />
        </mxCell>
        <mxCell id="Xmg_F8E3b7S0yMsgVUb--44" style="edgeStyle=orthogonalEdgeStyle;rounded=0;orthogonalLoop=1;jettySize=auto;html=1;exitX=0.5;exitY=1;exitDx=0;exitDy=0;entryX=0.5;entryY=0;entryDx=0;entryDy=0;" parent="WIyWlLk6GJQsqaUBKTNV-1" source="Xmg_F8E3b7S0yMsgVUb--17" target="Xmg_F8E3b7S0yMsgVUb--19" edge="1">
          <mxGeometry relative="1" as="geometry" />
        </mxCell>
        <mxCell id="Xmg_F8E3b7S0yMsgVUb--17" value="Pemrosesan data &lt;i&gt;feedback &lt;/i&gt;untuk analisa keberhasilan acara" style="rounded=0;whiteSpace=wrap;html=1;fillColor=#88DAEB;" parent="WIyWlLk6GJQsqaUBKTNV-1" vertex="1">
          <mxGeometry x="70" y="910" width="460" height="31" as="geometry" />
        </mxCell>
        <mxCell id="Xmg_F8E3b7S0yMsgVUb--46" style="edgeStyle=orthogonalEdgeStyle;rounded=0;orthogonalLoop=1;jettySize=auto;html=1;exitX=0.5;exitY=1;exitDx=0;exitDy=0;entryX=0.5;entryY=0;entryDx=0;entryDy=0;" parent="WIyWlLk6GJQsqaUBKTNV-1" source="Xmg_F8E3b7S0yMsgVUb--19" target="Xmg_F8E3b7S0yMsgVUb--20" edge="1">
          <mxGeometry relative="1" as="geometry" />
        </mxCell>
        <mxCell id="Kh-9gaG5R-nCd0gry7N--22" style="edgeStyle=orthogonalEdgeStyle;rounded=0;orthogonalLoop=1;jettySize=auto;html=1;exitX=1;exitY=0.5;exitDx=0;exitDy=0;entryX=0;entryY=0.5;entryDx=0;entryDy=0;" parent="WIyWlLk6GJQsqaUBKTNV-1" source="Xmg_F8E3b7S0yMsgVUb--19" target="HR6x1QMzDyvR9N6RNhHc-3" edge="1">
          <mxGeometry relative="1" as="geometry">
            <mxPoint x="484" y="1005" as="targetPoint" />
          </mxGeometry>
        </mxCell>
        <mxCell id="Xmg_F8E3b7S0yMsgVUb--19" value="&lt;i&gt;Feedback &lt;/i&gt;positif &amp;gt; 50% ?" style="rhombus;whiteSpace=wrap;html=1;fillColor=#FFFF66;" parent="WIyWlLk6GJQsqaUBKTNV-1" vertex="1">
          <mxGeometry x="200" y="970" width="200" height="70" as="geometry" />
        </mxCell>
        <mxCell id="Xmg_F8E3b7S0yMsgVUb--47" style="edgeStyle=orthogonalEdgeStyle;rounded=0;orthogonalLoop=1;jettySize=auto;html=1;exitX=0.5;exitY=1;exitDx=0;exitDy=0;entryX=0.5;entryY=0;entryDx=0;entryDy=0;" parent="WIyWlLk6GJQsqaUBKTNV-1" source="Xmg_F8E3b7S0yMsgVUb--20" target="Xmg_F8E3b7S0yMsgVUb--22" edge="1">
          <mxGeometry relative="1" as="geometry" />
        </mxCell>
        <mxCell id="Xmg_F8E3b7S0yMsgVUb--20" value="Kegiatan berhasil" style="rounded=0;whiteSpace=wrap;html=1;fillColor=#88DAEB;" parent="WIyWlLk6GJQsqaUBKTNV-1" vertex="1">
          <mxGeometry x="217.5" y="1070" width="165" height="30" as="geometry" />
        </mxCell>
        <mxCell id="Xmg_F8E3b7S0yMsgVUb--22" value="Selesai" style="ellipse;whiteSpace=wrap;html=1;fillColor=#FF99CC;" parent="WIyWlLk6GJQsqaUBKTNV-1" vertex="1">
          <mxGeometry x="240" y="1120" width="120" height="40" as="geometry" />
        </mxCell>
        <mxCell id="Xmg_F8E3b7S0yMsgVUb--48" value="Tidak" style="text;html=1;strokeColor=none;fillColor=none;align=center;verticalAlign=middle;whiteSpace=wrap;rounded=0;" parent="WIyWlLk6GJQsqaUBKTNV-1" vertex="1">
          <mxGeometry x="360" y="436" width="60" height="20" as="geometry" />
        </mxCell>
        <mxCell id="Xmg_F8E3b7S0yMsgVUb--50" value="Ya" style="text;html=1;strokeColor=none;fillColor=none;align=center;verticalAlign=middle;whiteSpace=wrap;rounded=0;" parent="WIyWlLk6GJQsqaUBKTNV-1" vertex="1">
          <mxGeometry x="286.25" y="490" width="60" height="30" as="geometry" />
        </mxCell>
        <mxCell id="Xmg_F8E3b7S0yMsgVUb--52" value="Ya" style="text;html=1;strokeColor=none;fillColor=none;align=center;verticalAlign=middle;whiteSpace=wrap;rounded=0;" parent="WIyWlLk6GJQsqaUBKTNV-1" vertex="1">
          <mxGeometry x="290" y="1040" width="60" height="30" as="geometry" />
        </mxCell>
        <mxCell id="Kh-9gaG5R-nCd0gry7N--6" value="" style="endArrow=none;html=1;rounded=0;" parent="WIyWlLk6GJQsqaUBKTNV-1" edge="1">
          <mxGeometry width="50" height="50" relative="1" as="geometry">
            <mxPoint x="120" y="160" as="sourcePoint" />
            <mxPoint x="490" y="160" as="targetPoint" />
          </mxGeometry>
        </mxCell>
        <mxCell id="Kh-9gaG5R-nCd0gry7N--7" value="" style="endArrow=classic;html=1;rounded=0;entryX=0.5;entryY=0;entryDx=0;entryDy=0;" parent="WIyWlLk6GJQsqaUBKTNV-1" edge="1">
          <mxGeometry width="50" height="50" relative="1" as="geometry">
            <mxPoint x="490" y="160" as="sourcePoint" />
            <mxPoint x="490" y="190" as="targetPoint" />
          </mxGeometry>
        </mxCell>
        <mxCell id="Kh-9gaG5R-nCd0gry7N--8" value="" style="endArrow=classic;html=1;rounded=0;" parent="WIyWlLk6GJQsqaUBKTNV-1" edge="1">
          <mxGeometry width="50" height="50" relative="1" as="geometry">
            <mxPoint x="120" y="160" as="sourcePoint" />
            <mxPoint x="120" y="190" as="targetPoint" />
          </mxGeometry>
        </mxCell>
        <mxCell id="Kh-9gaG5R-nCd0gry7N--9" value="" style="endArrow=classic;html=1;rounded=0;" parent="WIyWlLk6GJQsqaUBKTNV-1" edge="1">
          <mxGeometry width="50" height="50" relative="1" as="geometry">
            <mxPoint x="295" y="160" as="sourcePoint" />
            <mxPoint x="295" y="190" as="targetPoint" />
          </mxGeometry>
        </mxCell>
        <mxCell id="Kh-9gaG5R-nCd0gry7N--12" value="" style="endArrow=none;html=1;rounded=0;entryX=0.5;entryY=1;entryDx=0;entryDy=0;" parent="WIyWlLk6GJQsqaUBKTNV-1" target="Xmg_F8E3b7S0yMsgVUb--1" edge="1">
          <mxGeometry width="50" height="50" relative="1" as="geometry">
            <mxPoint x="295" y="160" as="sourcePoint" />
            <mxPoint x="380" y="130" as="targetPoint" />
          </mxGeometry>
        </mxCell>
        <mxCell id="Xmg_F8E3b7S0yMsgVUb--51" value="Tidak" style="text;html=1;strokeColor=none;fillColor=none;align=center;verticalAlign=middle;whiteSpace=wrap;rounded=0;" parent="WIyWlLk6GJQsqaUBKTNV-1" vertex="1">
          <mxGeometry x="400" y="985" width="60" height="20" as="geometry" />
        </mxCell>
        <mxCell id="HR6x1QMzDyvR9N6RNhHc-1" value="" style="endArrow=none;html=1;rounded=0;exitX=1;exitY=0.5;exitDx=0;exitDy=0;" parent="WIyWlLk6GJQsqaUBKTNV-1" source="HR6x1QMzDyvR9N6RNhHc-2" edge="1">
          <mxGeometry width="50" height="50" relative="1" as="geometry">
            <mxPoint x="650" y="460" as="sourcePoint" />
            <mxPoint x="610" y="460" as="targetPoint" />
          </mxGeometry>
        </mxCell>
        <mxCell id="HR6x1QMzDyvR9N6RNhHc-3" value="Kegiatan tidak berhasil" style="rounded=0;whiteSpace=wrap;html=1;fillColor=#88DAEB;" parent="WIyWlLk6GJQsqaUBKTNV-1" vertex="1">
          <mxGeometry x="470" y="975" width="120" height="60" as="geometry" />
        </mxCell>
        <mxCell id="HR6x1QMzDyvR9N6RNhHc-4" value="" style="endArrow=classic;html=1;rounded=0;entryX=1;entryY=0.5;entryDx=0;entryDy=0;" parent="WIyWlLk6GJQsqaUBKTNV-1" edge="1">
          <mxGeometry width="50" height="50" relative="1" as="geometry">
            <mxPoint x="610" y="1140" as="sourcePoint" />
            <mxPoint x="360" y="1140" as="targetPoint" />
          </mxGeometry>
        </mxCell>
        <mxCell id="HR6x1QMzDyvR9N6RNhHc-5" value="" style="endArrow=none;html=1;rounded=0;" parent="WIyWlLk6GJQsqaUBKTNV-1" edge="1">
          <mxGeometry width="50" height="50" relative="1" as="geometry">
            <mxPoint x="610" y="370" as="sourcePoint" />
            <mxPoint x="610" y="1140" as="targetPoint" />
          </mxGeometry>
        </mxCell>
        <mxCell id="HR6x1QMzDyvR9N6RNhHc-6" value="" style="endArrow=none;html=1;rounded=0;exitX=1;exitY=0.5;exitDx=0;exitDy=0;" parent="WIyWlLk6GJQsqaUBKTNV-1" source="HR6x1QMzDyvR9N6RNhHc-3" edge="1">
          <mxGeometry width="50" height="50" relative="1" as="geometry">
            <mxPoint x="620" y="1090" as="sourcePoint" />
            <mxPoint x="610" y="1005" as="targetPoint" />
          </mxGeometry>
        </mxCell>
        <mxCell id="HR6x1QMzDyvR9N6RNhHc-2" value="&lt;span&gt;Tidak mendapat sertifikat&lt;/span&gt;" style="rounded=0;whiteSpace=wrap;html=1;fillColor=#88DAEB;" parent="WIyWlLk6GJQsqaUBKTNV-1" vertex="1">
          <mxGeometry x="455" y="430" width="120" height="60" as="geometry" />
        </mxCell>
        <mxCell id="FaiW_ZVf7YoKUfPSm8W6-0" value="" style="endArrow=none;html=1;rounded=0;" edge="1" parent="WIyWlLk6GJQsqaUBKTNV-1">
          <mxGeometry width="50" height="50" relative="1" as="geometry">
            <mxPoint x="51" y="380" as="sourcePoint" />
            <mxPoint x="51" y="1140" as="targetPoint" />
          </mxGeometry>
        </mxCell>
        <mxCell id="FaiW_ZVf7YoKUfPSm8W6-1" value="" style="endArrow=classic;html=1;rounded=0;" edge="1" parent="WIyWlLk6GJQsqaUBKTNV-1">
          <mxGeometry width="50" height="50" relative="1" as="geometry">
            <mxPoint x="51" y="1140" as="sourcePoint" />
            <mxPoint x="241" y="1140" as="targetPoint" />
          </mxGeometry>
        </mxCell>
        <mxCell id="FaiW_ZVf7YoKUfPSm8W6-2" value="" style="endArrow=none;html=1;rounded=0;" edge="1" parent="WIyWlLk6GJQsqaUBKTNV-1">
          <mxGeometry width="50" height="50" relative="1" as="geometry">
            <mxPoint x="110" y="254" as="sourcePoint" />
            <mxPoint x="110" y="380" as="targetPoint" />
          </mxGeometry>
        </mxCell>
        <mxCell id="FaiW_ZVf7YoKUfPSm8W6-3" value="" style="endArrow=none;html=1;rounded=0;" edge="1" parent="WIyWlLk6GJQsqaUBKTNV-1">
          <mxGeometry width="50" height="50" relative="1" as="geometry">
            <mxPoint x="50" y="380" as="sourcePoint" />
            <mxPoint x="110" y="380" as="targetPoint" />
          </mxGeometry>
        </mxCell>
        <mxCell id="FaiW_ZVf7YoKUfPSm8W6-4" value="" style="endArrow=none;html=1;rounded=0;" edge="1" parent="WIyWlLk6GJQsqaUBKTNV-1">
          <mxGeometry width="50" height="50" relative="1" as="geometry">
            <mxPoint x="484.5" y="325" as="sourcePoint" />
            <mxPoint x="485" y="370" as="targetPoint" />
          </mxGeometry>
        </mxCell>
        <mxCell id="FaiW_ZVf7YoKUfPSm8W6-5" value="" style="endArrow=none;html=1;rounded=0;" edge="1" parent="WIyWlLk6GJQsqaUBKTNV-1">
          <mxGeometry width="50" height="50" relative="1" as="geometry">
            <mxPoint x="485" y="370" as="sourcePoint" />
            <mxPoint x="610" y="370" as="targetPoint" />
          </mxGeometry>
        </mxCell>
      </root>
    </mxGraphModel>
  </diagram>
</mxfile>
